<?xml version="1.0" encoding="us-ascii" standalone="no"?><svg xmlns="http://www.w3.org/2000/svg" xmlns:xlink="http://www.w3.org/1999/xlink" contentStyleType="text/css" height="833px" preserveAspectRatio="none" style="width:573px;height:833px;background:#FFFFFF;" version="1.1" viewBox="0 0 573 833" width="573px" zoomAndPan="magnify"><defs/><g><text fill="#000000" font-family="sans-serif" font-size="14" font-weight="bold" lengthAdjust="spacing" textLength="176" x="197" y="36.0439">Sokit main.cpp &#25191;&#34892;&#27969;&#31243;&#22270;</text><ellipse cx="286.5" cy="60.1201" fill="#222222" rx="10" ry="10" style="stroke:#222222;stroke-width:1.0;"/><rect fill="#F1F1F1" height="36.3887" rx="12.5" ry="12.5" style="stroke:#181818;stroke-width:0.5;" width="160" x="206.5" y="90.1201"/><text fill="#000000" font-family="sans-serif" font-size="12" lengthAdjust="spacing" textLength="140" x="216.5" y="113.8721">&#31243;&#24207;&#20837;&#21475; main(argc, argv)</text><rect fill="#F1F1F1" height="36.3887" rx="12.5" ry="12.5" style="stroke:#181818;stroke-width:0.5;" width="125" x="224" y="146.5088"/><text fill="#000000" font-family="sans-serif" font-size="12" lengthAdjust="spacing" textLength="105" x="234" y="170.2607">&#21019;&#24314; Sokit &#24212;&#29992;&#23545;&#35937;</text><rect fill="#F1F1F1" height="36.3887" rx="12.5" ry="12.5" style="stroke:#181818;stroke-width:0.5;" width="83" x="245" y="202.8975"/><text fill="#000000" font-family="sans-serif" font-size="12" lengthAdjust="spacing" textLength="63" x="255" y="226.6494">&#35843;&#29992; initUI()</text><rect fill="#555555" height="6" rx="2.5" ry="2.5" style="stroke:#555555;stroke-width:1.0;" width="551" x="11" y="259.2861"/><rect fill="#F1F1F1" height="36.3887" rx="12.5" ry="12.5" style="stroke:#181818;stroke-width:0.5;" width="100" x="23" y="413.0635"/><text fill="#000000" font-family="sans-serif" font-size="12" lengthAdjust="spacing" textLength="80" x="33" y="436.8154">initTranslator()</text><rect fill="#F1F1F1" height="36.3887" rx="12.5" ry="12.5" style="stroke:#181818;stroke-width:0.5;" width="68" x="151" y="413.0635"/><text fill="#000000" font-family="sans-serif" font-size="12" lengthAdjust="spacing" textLength="48" x="161" y="436.8154">initFont()</text><rect fill="#F1F1F1" height="36.3887" rx="12.5" ry="12.5" style="stroke:#181818;stroke-width:0.5;" width="102" x="256.5" y="377.3691"/><text fill="#000000" font-family="sans-serif" font-size="12" lengthAdjust="spacing" textLength="82" x="266.5" y="401.1211">&#21019;&#24314; HelpForm</text><rect fill="#F1F1F1" height="36.3887" rx="12.5" ry="12.5" style="stroke:#181818;stroke-width:0.5;" width="121" x="247" y="448.7578"/><text fill="#000000" font-family="sans-serif" font-size="12" lengthAdjust="spacing" textLength="101" x="257" y="472.5098">&#32465;&#23450;&#24555;&#25463;&#38190; F1/F10</text><rect fill="#F1F1F1" height="36.3887" rx="12.5" ry="12.5" style="stroke:#181818;stroke-width:0.5;" width="111" x="417.5" y="285.2861"/><text fill="#000000" font-family="sans-serif" font-size="12" lengthAdjust="spacing" textLength="91" x="427.5" y="309.0381">&#21019;&#24314; ServerForm</text><rect fill="#F1F1F1" height="36.3887" rx="12.5" ry="12.5" style="stroke:#181818;stroke-width:0.5;" width="122" x="412" y="341.6748"/><text fill="#000000" font-family="sans-serif" font-size="12" lengthAdjust="spacing" textLength="102" x="422" y="365.4268">&#21019;&#24314; TransferForm</text><rect fill="#F1F1F1" height="36.3887" rx="12.5" ry="12.5" style="stroke:#181818;stroke-width:0.5;" width="108" x="419" y="413.0635"/><text fill="#000000" font-family="sans-serif" font-size="12" lengthAdjust="spacing" textLength="88" x="429" y="436.8154">&#21019;&#24314; ClientForm</text><rect fill="#F1F1F1" height="36.3887" rx="12.5" ry="12.5" style="stroke:#181818;stroke-width:0.5;" width="123" x="411.5" y="484.4521"/><text fill="#000000" font-family="sans-serif" font-size="12" lengthAdjust="spacing" textLength="103" x="421.5" y="508.2041">&#21019;&#24314; NotepadForm</text><rect fill="#F1F1F1" height="36.3887" rx="12.5" ry="12.5" style="stroke:#181818;stroke-width:0.5;" width="154" x="396" y="540.8408"/><text fill="#000000" font-family="sans-serif" font-size="12" lengthAdjust="spacing" textLength="134" x="406" y="564.5928">&#21152;&#20837; QTabWidget &#26631;&#31614;&#39029;</text><rect fill="#555555" height="6" rx="2.5" ry="2.5" style="stroke:#555555;stroke-width:1.0;" width="551" x="11" y="597.2295"/><polygon fill="#F1F1F1" points="256,623.2295,317,623.2295,329,635.2295,317,647.2295,256,647.2295,244,635.2295,256,623.2295" style="stroke:#181818;stroke-width:0.5;"/><text fill="#000000" font-family="sans-serif" font-size="11" lengthAdjust="spacing" textLength="61" x="256" y="640.324">&#21021;&#22987;&#21270;&#25104;&#21151;?</text><text fill="#000000" font-family="sans-serif" font-size="11" lengthAdjust="spacing" textLength="11" x="233" y="632.8125">&#26159;</text><text fill="#000000" font-family="sans-serif" font-size="11" lengthAdjust="spacing" textLength="11" x="329" y="632.8125">&#21542;</text><rect fill="#F1F1F1" height="36.3887" rx="12.5" ry="12.5" style="stroke:#181818;stroke-width:0.5;" width="148" x="131.5" y="657.2295"/><text fill="#000000" font-family="sans-serif" font-size="12" lengthAdjust="spacing" textLength="128" x="141.5" y="680.9814">&#35843;&#29992; show() &#26174;&#31034;&#20027;&#31383;&#21475;</text><rect fill="#F1F1F1" height="36.3887" rx="12.5" ry="12.5" style="stroke:#181818;stroke-width:0.5;" width="136" x="299.5" y="657.2295"/><text fill="#000000" font-family="sans-serif" font-size="12" lengthAdjust="spacing" textLength="116" x="309.5" y="680.9814">&#35843;&#29992; close() &#20851;&#38381;&#31383;&#21475;</text><polygon fill="#F1F1F1" points="286.5,699.6182,298.5,711.6182,286.5,723.6182,274.5,711.6182,286.5,699.6182" style="stroke:#181818;stroke-width:0.5;"/><rect fill="#F1F1F1" height="36.3887" rx="12.5" ry="12.5" style="stroke:#181818;stroke-width:0.5;" width="138" x="217.5" y="743.6182"/><text fill="#000000" font-family="sans-serif" font-size="12" lengthAdjust="spacing" textLength="118" x="227.5" y="767.3701">&#36827;&#20837;&#20107;&#20214;&#24490;&#29615; a.exec()</text><ellipse cx="286.5" cy="811.0068" fill="none" rx="11" ry="11" style="stroke:#222222;stroke-width:1.0;"/><ellipse cx="286.5" cy="811.0068" fill="#222222" rx="6" ry="6" style="stroke:#222222;stroke-width:1.0;"/><line style="stroke:#181818;stroke-width:1.0;" x1="286.5" x2="286.5" y1="70.1201" y2="90.1201"/><polygon fill="#181818" points="282.5,80.1201,286.5,90.1201,290.5,80.1201,286.5,84.1201" style="stroke:#181818;stroke-width:1.0;"/><line style="stroke:#181818;stroke-width:1.0;" x1="286.5" x2="286.5" y1="126.5088" y2="146.5088"/><polygon fill="#181818" points="282.5,136.5088,286.5,146.5088,290.5,136.5088,286.5,140.5088" style="stroke:#181818;stroke-width:1.0;"/><line style="stroke:#181818;stroke-width:1.0;" x1="286.5" x2="286.5" y1="182.8975" y2="202.8975"/><polygon fill="#181818" points="282.5,192.8975,286.5,202.8975,290.5,192.8975,286.5,196.8975" style="stroke:#181818;stroke-width:1.0;"/><line style="stroke:#181818;stroke-width:1.0;" x1="307.5" x2="307.5" y1="413.7578" y2="448.7578"/><polygon fill="#181818" points="303.5,438.7578,307.5,448.7578,311.5,438.7578,307.5,442.7578" style="stroke:#181818;stroke-width:1.0;"/><line style="stroke:#181818;stroke-width:1.0;" x1="473" x2="473" y1="321.6748" y2="341.6748"/><polygon fill="#181818" points="469,331.6748,473,341.6748,477,331.6748,473,335.6748" style="stroke:#181818;stroke-width:1.0;"/><line style="stroke:#181818;stroke-width:1.0;" x1="473" x2="473" y1="378.0635" y2="413.0635"/><polygon fill="#181818" points="469,403.0635,473,413.0635,477,403.0635,473,407.0635" style="stroke:#181818;stroke-width:1.0;"/><line style="stroke:#181818;stroke-width:1.0;" x1="473" x2="473" y1="449.4521" y2="484.4521"/><polygon fill="#181818" points="469,474.4521,473,484.4521,477,474.4521,473,478.4521" style="stroke:#181818;stroke-width:1.0;"/><line style="stroke:#181818;stroke-width:1.0;" x1="473" x2="473" y1="520.8408" y2="540.8408"/><polygon fill="#181818" points="469,530.8408,473,540.8408,477,530.8408,473,534.8408" style="stroke:#181818;stroke-width:1.0;"/><line style="stroke:#181818;stroke-width:1.0;" x1="73" x2="73" y1="265.2861" y2="413.0635"/><polygon fill="#181818" points="69,403.0635,73,413.0635,77,403.0635,73,407.0635" style="stroke:#181818;stroke-width:1.0;"/><line style="stroke:#181818;stroke-width:1.0;" x1="185" x2="185" y1="265.2861" y2="413.0635"/><polygon fill="#181818" points="181,403.0635,185,413.0635,189,403.0635,185,407.0635" style="stroke:#181818;stroke-width:1.0;"/><line style="stroke:#181818;stroke-width:1.0;" x1="307.5" x2="307.5" y1="265.2861" y2="377.3691"/><polygon fill="#181818" points="303.5,367.3691,307.5,377.3691,311.5,367.3691,307.5,371.3691" style="stroke:#181818;stroke-width:1.0;"/><line style="stroke:#181818;stroke-width:1.0;" x1="473" x2="473" y1="265.2861" y2="285.2861"/><polygon fill="#181818" points="469,275.2861,473,285.2861,477,275.2861,473,279.2861" style="stroke:#181818;stroke-width:1.0;"/><line style="stroke:#181818;stroke-width:1.0;" x1="73" x2="73" y1="449.4521" y2="597.2295"/><polygon fill="#181818" points="69,587.2295,73,597.2295,77,587.2295,73,591.2295" style="stroke:#181818;stroke-width:1.0;"/><line style="stroke:#181818;stroke-width:1.0;" x1="185" x2="185" y1="449.4521" y2="597.2295"/><polygon fill="#181818" points="181,587.2295,185,597.2295,189,587.2295,185,591.2295" style="stroke:#181818;stroke-width:1.0;"/><line style="stroke:#181818;stroke-width:1.0;" x1="307.5" x2="307.5" y1="485.1465" y2="597.2295"/><polygon fill="#181818" points="303.5,587.2295,307.5,597.2295,311.5,587.2295,307.5,591.2295" style="stroke:#181818;stroke-width:1.0;"/><line style="stroke:#181818;stroke-width:1.0;" x1="473" x2="473" y1="577.2295" y2="597.2295"/><polygon fill="#181818" points="469,587.2295,473,597.2295,477,587.2295,473,591.2295" style="stroke:#181818;stroke-width:1.0;"/><line style="stroke:#181818;stroke-width:1.0;" x1="286.5" x2="286.5" y1="239.2861" y2="259.2861"/><polygon fill="#181818" points="282.5,249.2861,286.5,259.2861,290.5,249.2861,286.5,253.2861" style="stroke:#181818;stroke-width:1.0;"/><line style="stroke:#181818;stroke-width:1.0;" x1="244" x2="205.5" y1="635.2295" y2="635.2295"/><line style="stroke:#181818;stroke-width:1.0;" x1="205.5" x2="205.5" y1="635.2295" y2="657.2295"/><polygon fill="#181818" points="201.5,647.2295,205.5,657.2295,209.5,647.2295,205.5,651.2295" style="stroke:#181818;stroke-width:1.0;"/><line style="stroke:#181818;stroke-width:1.0;" x1="329" x2="367.5" y1="635.2295" y2="635.2295"/><line style="stroke:#181818;stroke-width:1.0;" x1="367.5" x2="367.5" y1="635.2295" y2="657.2295"/><polygon fill="#181818" points="363.5,647.2295,367.5,657.2295,371.5,647.2295,367.5,651.2295" style="stroke:#181818;stroke-width:1.0;"/><line style="stroke:#181818;stroke-width:1.0;" x1="205.5" x2="205.5" y1="693.6182" y2="711.6182"/><line style="stroke:#181818;stroke-width:1.0;" x1="205.5" x2="274.5" y1="711.6182" y2="711.6182"/><polygon fill="#181818" points="264.5,707.6182,274.5,711.6182,264.5,715.6182,268.5,711.6182" style="stroke:#181818;stroke-width:1.0;"/><line style="stroke:#181818;stroke-width:1.0;" x1="367.5" x2="367.5" y1="693.6182" y2="711.6182"/><line style="stroke:#181818;stroke-width:1.0;" x1="367.5" x2="298.5" y1="711.6182" y2="711.6182"/><polygon fill="#181818" points="308.5,707.6182,298.5,711.6182,308.5,715.6182,304.5,711.6182" style="stroke:#181818;stroke-width:1.0;"/><line style="stroke:#181818;stroke-width:1.0;" x1="286.5" x2="286.5" y1="603.2295" y2="623.2295"/><polygon fill="#181818" points="282.5,613.2295,286.5,623.2295,290.5,613.2295,286.5,617.2295" style="stroke:#181818;stroke-width:1.0;"/><line style="stroke:#181818;stroke-width:1.0;" x1="286.5" x2="286.5" y1="723.6182" y2="743.6182"/><polygon fill="#181818" points="282.5,733.6182,286.5,743.6182,290.5,733.6182,286.5,737.6182" style="stroke:#181818;stroke-width:1.0;"/><line style="stroke:#181818;stroke-width:1.0;" x1="286.5" x2="286.5" y1="780.0068" y2="800.0068"/><polygon fill="#181818" points="282.5,790.0068,286.5,800.0068,290.5,790.0068,286.5,794.0068" style="stroke:#181818;stroke-width:1.0;"/><!--SRC=[TL5TIm9157tVNt4VLmZBLtte8P1w2KAZvqb77Lntbjt1UesGJ2qD92M9b3uKGot2FbPO_uopg_-Y6J6BefU1UywvvzwvXn6cOOZGD66GGKJtnmm3tDFsj5LoXqTUfyWRZg9O39bC2ShIBlFSFI_VpjKgCfEn5H1lrXTIb23FD_Z8NjXnk-fLEtpmCNrkINBwT2ng83fXkrkgr2UecLO0WXAAcaYtDCIeAId904gA4LzycEhiBxCOk8ar8qpDJ4XYtkY2zw_u-D4zUvjL-n0Eh8O3Q_zqHh2PnUQoTu7EbqdynJSqWdNs6zsc31ie_WqNck96i1D5-tiadiGCtEQ9rtDchM58mNeSvlzMI09Kdh_cxI8lNRhv2Y_ShFk0fR0EgbiV-AJLucPMYXweFd3hZdTdJzv7NhSc8X1cceM5IUNXfpYcKGiBDS-zp6gzfLIFauHCOTmGoqtiucJqofskTpu0vCU7E3PFn6BK-0G0]--></g></svg>